HIERARCHY
ROOT SimulationBone
{
	OFFSET 0.000000 0.000000 0.000000
	CHANNELS 6 Xposition Yposition Zposition Zrotation Yrotation Xrotation 
	JOINT Hips
	{
		OFFSET 0.000000 0.000000 0.000000
		CHANNELS 6 Xposition Yposition Zposition Zrotation Yrotation Xrotation 
		JOINT LeftUpLeg
		{
			OFFSET 0.103458 1.857831 10.548505
			CHANNELS 3 Zrotation Yrotation Xrotation
			JOINT LeftLeg
			{
				OFFSET 43.500000 -0.000031 0.000002
				CHANNELS 3 Zrotation Yrotation Xrotation
				JOINT LeftFoot
				{
					OFFSET 42.372200 0.000023 0.000003
					CHANNELS 3 Zrotation Yrotation Xrotation
					JOINT LeftToe
					{
						OFFSET 17.299997 -0.000001 -0.000010
						CHANNELS 3 Zrotation Yrotation Xrotation
						End Site
						{
							OFFSET 0.000000 0.000000 0.000000
						}
					}
				}
			}
		}
		JOINT RightUpLeg
		{
			OFFSET 0.103457 1.857828 -10.548510
			CHANNELS 3 Zrotation Yrotation Xrotation
			JOINT RightLeg
			{
				OFFSET 43.500046 -0.000015 0.000002
				CHANNELS 3 Zrotation Yrotation Xrotation
				JOINT RightFoot
				{
					OFFSET 42.372261 -0.000008 0.000023
					CHANNELS 3 Zrotation Yrotation Xrotation
					JOINT RightToe
					{
						OFFSET 17.299990 -0.000007 -0.000002
						CHANNELS 3 Zrotation Yrotation Xrotation
						End Site
						{
							OFFSET 0.000000 0.000000 0.000000
						}
					}
				}
			}
		}
		JOINT Spine
		{
			OFFSET 6.901967 -2.603726 -0.000001
			CHANNELS 3 Zrotation Yrotation Xrotation
			JOINT Spine1
			{
				OFFSET 12.588100 -0.000009 -0.000003
				CHANNELS 3 Zrotation Yrotation Xrotation
				JOINT Spine2
				{
					OFFSET 12.343202 0.000008 0.000008
					CHANNELS 3 Zrotation Yrotation Xrotation
					JOINT Neck
					{
						OFFSET 25.832897 -0.000015 -0.000004
						CHANNELS 3 Zrotation Yrotation Xrotation
						JOINT Head
						{
							OFFSET 11.766609 0.000013 -0.000006
							CHANNELS 3 Zrotation Yrotation Xrotation
							End Site
							{
								OFFSET 0.000000 0.000000 0.000000
							}
						}
					}
					JOINT LeftShoulder
					{
						OFFSET 19.745911 -1.480373 6.000098
						CHANNELS 3 Zrotation Yrotation Xrotation
						JOINT LeftArm
						{
							OFFSET 11.284123 -0.000007 -0.000032
							CHANNELS 3 Zrotation Yrotation Xrotation
							JOINT LeftForeArm
							{
								OFFSET 33.000050 0.000005 0.000031
								CHANNELS 3 Zrotation Yrotation Xrotation
								JOINT LeftHand
								{
									OFFSET 25.200008 0.000017 0.000013
									CHANNELS 3 Zrotation Yrotation Xrotation
									End Site
									{
										OFFSET 0.000000 0.000000 0.000000
									}
								}
							}
						}
					}
					JOINT RightShoulder
					{
						OFFSET 19.746092 -1.480379 -6.000077
						CHANNELS 3 Zrotation Yrotation Xrotation
						JOINT RightArm
						{
							OFFSET 11.284136 -0.000017 -0.000017
							CHANNELS 3 Zrotation Yrotation Xrotation
							JOINT RightForeArm
							{
								OFFSET 33.000099 0.000019 0.000015
								CHANNELS 3 Zrotation Yrotation Xrotation
								JOINT RightHand
								{
									OFFSET 25.199780 0.000140 0.000408
									CHANNELS 3 Zrotation Yrotation Xrotation
									End Site
									{
										OFFSET 0.000000 0.000000 0.000000
									}
								}
							}
						}
					}
				}
			}
		}
	}
}
MOTION
Frames: 11
Frame Time: 0.033333
31.712354 0.000000 -141.510620 180.000000 73.632753 180.000000 0.194178 89.149498 2.467677 94.710154 4.153436 -175.657092 146.767624 -7.787001 171.402573 -62.127421 -4.465561 -3.816198 68.623580 1.839773 -3.038343 21.454551 0.003090 -0.000001 -178.439635 6.148202 -173.719783 -22.731399 5.802069 2.026675 83.944507 0.306112 9.087363 21.454557 -0.003103 -0.000016 8.075671 0.548293 0.940652 6.147481 1.045999 1.909022 5.829523 1.057630 1.902674 14.562131 2.564756 4.583410 -10.636304 -5.212088 6.495153 -171.236381 -74.399816 -10.443010 -31.946420 52.064340 10.903082 -29.699916 -14.619071 1.199477 13.340449 -6.335433 13.434390 -164.560499 74.422294 17.242048 -5.947621 -50.763827 -43.118158 -33.923217 16.928810 -1.462053 12.262281 -2.540294 -7.928035 
31.527829 0.000000 -142.927435 180.000000 69.744682 180.000000 -0.028339 89.281227 2.582152 94.108633 3.851979 -176.585091 147.307974 -8.539396 171.718988 -51.812767 -5.082826 -6.850515 68.037010 3.900354 -3.470562 21.454553 0.003101 0.000000 -176.540132 5.862301 -171.706188 -21.214716 5.371424 2.810464 84.082395 -0.149685 9.568075 21.454558 -0.003112 -0.000018 8.042427 0.353233 1.098175 6.078401 0.648495 2.213327 5.760524 0.661990 2.209372 14.106749 2.626427 4.492130 -10.741922 -5.270775 6.432964 -168.255987 -74.589859 -13.496494 -26.789621 49.215604 14.763333 -29.752051 -14.307565 1.180462 11.916331 -5.613960 11.259055 -164.326019 74.318189 17.483104 -6.597850 -50.423069 -41.962394 -34.450231 17.491266 -1.510216 11.790965 -2.358328 -5.658129 
31.121154 0.000000 -144.343850 180.000000 65.905595 180.000000 -0.316715 89.461159 2.677279 93.555850 3.600393 -177.407774 148.961426 -8.765392 171.405127 -39.242247 -4.508200 -8.887971 66.599009 5.084432 -4.179505 21.454551 0.003088 0.000000 -174.286661 5.403703 -170.146747 -18.877045 5.121364 3.893544 83.584536 -0.745648 10.149936 21.454558 -0.003112 -0.000019 8.025602 0.193263 1.259191 6.041956 0.320758 2.526687 5.724192 0.336147 2.524727 13.835994 2.512831 4.247904 -10.546204 -5.052358 6.099018 -166.399323 -74.905510 -15.396908 -23.363601 46.446984 18.159333 -29.042299 -13.903936 1.141178 10.754252 -4.651105 9.054935 -163.657302 74.167235 18.169534 -7.155749 -50.307075 -40.839754 -34.969363 17.840295 -1.544708 11.970695 -2.377884 -4.781240 
30.483137 0.000000 -145.755588 180.000000 62.113948 180.000000 -0.687802 89.527184 2.775739 92.839027 3.535668 -177.405402 150.365740 -8.263009 170.691700 -27.037736 -2.966579 -9.952235 66.032971 5.971073 -3.729333 21.454551 0.003092 -0.000000 -171.959807 4.514398 -168.647192 -16.157543 4.970427 5.404239 82.936419 -1.596042 10.912883 21.454558 -0.003094 -0.000016 7.945638 0.159265 1.181488 5.881132 0.258523 2.369488 5.563341 0.272958 2.367886 14.030501 1.433034 4.131796 -10.530008 -4.125928 5.640486 -165.033722 -74.564444 -16.797197 -20.691426 43.731225 22.128032 -28.410010 -13.766845 1.120790 12.503342 -5.395254 8.315695 -164.944492 74.610965 16.847392 -7.121068 -50.817594 -39.007289 -35.343524 17.657798 -1.541718 12.104997 -2.352283 -5.545700 
29.617135 0.000000 -147.165291 180.000000 58.373352 180.000000 -1.052037 89.386162 2.949556 92.149925 3.722010 -177.020821 150.169605 -7.569796 171.813559 -19.259211 -2.132115 -11.867303 64.692335 7.050125 -4.508105 21.454555 0.003093 0.000000 -169.730064 3.124998 -167.472550 -13.707691 4.757636 7.135580 82.408036 -2.577742 11.821735 21.454555 -0.003096 -0.000014 7.943647 0.131898 1.092004 5.876486 0.208380 2.189248 5.558637 0.221730 2.187955 13.033019 1.663929 3.793659 -10.105559 -4.077812 5.272822 -163.117990 -75.201913 -18.753208 -19.756939 42.345984 22.686485 -27.595721 -13.353455 1.079798 13.614970 -6.050726 12.051304 -164.700709 74.047795 17.101117 -7.741917 -50.821914 -37.956464 -35.819677 17.432502 -1.538476 11.686672 -1.630178 -4.304420 
28.515634 0.000000 -148.564632 180.000000 54.679777 180.000000 -1.269342 88.925056 3.035677 91.858532 4.077135 -176.614770 148.549333 -7.125198 173.235372 -18.433526 -1.657939 -13.924287 64.601821 8.397533 -4.899262 21.454551 0.003094 0.000001 -167.415040 1.698908 -166.481995 -12.198697 4.653403 8.648523 82.374096 -3.417703 12.869882 21.454558 -0.003111 -0.000018 8.031593 0.158533 1.115475 6.052881 0.258713 2.237678 5.735062 0.272359 2.236073 11.876450 1.936396 3.145547 -9.702760 -4.181068 4.638964 -164.061800 -76.097583 -17.780210 -19.132311 41.294948 23.078622 -26.935297 -12.919343 1.040540 14.189329 -5.428151 14.900022 -163.736806 73.568657 18.093412 -7.765860 -51.492045 -37.629086 -36.218553 17.966543 -1.582557 10.701080 0.253795 -3.945537 
27.189323 0.000000 -149.950847 180.000000 51.011334 180.000000 -1.488546 88.225304 3.078443 91.627341 4.525809 -176.283116 145.415848 -6.984601 171.327304 -24.124329 -1.211691 -13.696313 65.911954 8.570591 -3.991455 21.454553 0.003093 0.000000 -165.614971 0.328201 -165.392990 -12.027990 4.541411 9.815067 82.958166 -4.030648 14.150960 21.454557 -0.003101 -0.000018 8.124456 0.254060 1.100022 6.240455 0.448628 2.212085 5.922609 0.462111 2.209342 10.985717 1.589328 2.638176 -9.499713 -3.957825 4.021157 -164.872188 -75.981319 -16.952907 -18.688140 39.822759 24.637317 -27.065098 -12.826579 1.036777 14.396418 -4.106800 17.886650 -164.502415 73.698117 17.306994 -6.904802 -52.600523 -37.165730 -36.925727 18.291684 -1.620897 9.533244 3.328579 -3.458265 
25.639708 0.000000 -151.321136 180.000000 47.380870 180.000000 -1.636803 87.395576 2.995967 91.549833 4.836226 -176.832101 142.427107 -7.276510 169.710926 -32.360688 -0.772980 -13.089281 67.582543 8.230504 -3.707819 21.454553 0.003092 -0.000000 -164.224700 -0.483515 -164.157846 -13.158518 4.302574 10.316497 83.923415 -4.201481 15.578202 21.454555 -0.003117 -0.000017 8.261453 0.278367 1.240084 6.515445 0.486660 2.493824 6.197658 0.501844 2.490851 9.969330 1.786927 2.171678 -8.988703 -4.010594 3.558433 -164.275134 -76.333299 -17.560372 -18.681129 39.362991 25.785245 -27.680429 -12.673707 1.037527 13.627697 -2.239740 21.387380 -165.283802 73.386728 16.507602 -5.631550 -53.564058 -36.566080 -38.374284 18.739145 -1.686517 8.993327 6.663250 -3.277046 
23.861748 0.000000 -152.664464 180.000000 43.820608 180.000000 -1.604377 86.624443 2.672731 91.432903 5.037725 -178.150223 140.991237 -7.165801 168.495029 -39.527083 -0.482493 -13.417370 69.593726 8.880830 -2.484911 21.454553 0.003090 -0.000001 -163.329876 -0.483988 -163.052065 -15.448279 4.133579 10.360737 83.865625 -3.886830 17.262702 21.454557 -0.003103 -0.000017 8.313226 0.285077 1.448304 6.619835 0.487076 2.910504 6.302180 0.504772 2.907511 9.578118 1.973911 1.771855 -8.390512 -4.613344 3.311792 -163.854490 -76.789898 -17.986142 -18.306159 40.100631 27.474853 -27.789883 -12.674229 1.039483 12.226071 -1.028643 24.054606 -166.004087 72.984021 15.770596 -3.757217 -54.610754 -36.218434 -39.990375 19.627995 -1.787053 8.536691 8.497328 -3.019452 
21.866741 0.000000 -153.975601 180.000000 40.359410 180.000000 -1.547021 86.006683 2.245580 91.240336 4.920316 -179.550364 141.735605 -6.392895 166.089478 -43.155007 0.536902 -12.416150 70.645466 8.120165 -2.522766 21.454551 0.003092 -0.000000 -163.074127 0.057600 -161.316760 -18.913991 3.380396 9.782678 83.239891 -3.084364 18.712374 21.454558 -0.003105 -0.000018 8.296478 0.310750 1.437493 6.586995 0.539399 2.890295 6.269345 0.556972 2.886998 9.752482 1.202975 2.051588 -7.561533 -4.550510 3.475180 -161.575010 -75.666092 -20.326310 -17.441511 40.343124 31.461624 -28.393441 -12.797080 1.058103 11.478000 -0.185745 24.333717 -167.331835 73.091214 14.406877 -1.752242 -55.882398 -35.345170 -41.784837 20.290498 -1.880053 8.144671 8.568389 -3.554094 
19.676559 0.000000 -155.244125 180.000000 37.021723 180.000000 -1.453018 85.607430 1.645611 91.063518 4.105835 178.770401 145.220053 -4.378096 165.541902 -41.317635 -0.675582 -11.768614 72.868146 8.914643 1.603951 21.454553 0.003092 -0.000000 -163.703597 1.800006 -160.214586 -23.991881 2.414133 9.285344 81.222082 -1.862720 21.121347 21.454557 -0.003100 -0.000019 8.257419 0.195617 1.409186 6.505862 0.311935 2.827096 6.188202 0.329137 2.825164 9.950832 1.175207 2.427298 -6.968941 -4.807542 3.901708 -159.294423 -74.954250 -22.669014 -16.349451 41.586607 34.527870 -29.081388 -12.051525 1.022474 10.654318 -0.164247 25.322032 -165.873712 72.760851 15.905612 -0.101609 -56.774971 -34.810824 -43.863758 20.558284 -1.957975 7.675323 7.662770 -4.409891 
